# xmcd
#
# Track frame offsets: 
#        150
#        21355
#        39010
#        63310
#        83795
#        104597
#        125842
#        149395
#        167183
#        186078
#        200468
#        229448
#        251810
#        284935
#        304515
#        329081
#
# Disc length: 4582 seconds
#
# Revision: 26
# Processed by: cddbd v1.5.2PL0 Copyright (c) Steve Scherf et al.
# Submitted via: ExactAudioCopy v1.0b1
#
DISCID=f911e410
DTITLE=Eric Clapton - Chronicles
DYEAR=2007
DGENRE=Classic Rock
TTITLE0=Blue Eyes Blue
TTITLE1=Change the World
TTITLE2=My Father's Eyes
TTITLE3=Tears in Heaven
TTITLE4=Layla
TTITLE5=Pretending
TTITLE6=Bad Love
TTITLE7=Before You Accuse Me (Take A Look At Yourself)
TTITLE8=It's In The Way That You Use It
TTITLE9=Forever Man
TTITLE10=Running On Faith [Unplugged]
TTITLE11=She's Waiting
TTITLE12=River of Tears
TTITLE13=(I) Get Lost
TTITLE14=Wonderful Tonight [Live]
TTITLE15=Hard Times
EXTD=Australasian Tour 2007 Limited Edition
EXTT0=
EXTT1=
EXTT2=
EXTT3=
EXTT4=
EXTT5=
EXTT6=
EXTT7=
EXTT8=
EXTT9=
EXTT10=
EXTT11=
EXTT12=
EXTT13=
EXTT14=
EXTT15=
PLAYORDER=
